<svg data-v-0dd9719b="" version="1.0" xmlns="http://www.w3.org/2000/svg" xmlns:xlink="http://www.w3.org/1999/xlink" width="100%" height="100%" viewBox="0 0 340.000000 250.000000" preserveAspectRatio="xMidYMid meet" color-interpolation-filters="sRGB" style="margin: auto;"> <rect data-v-0dd9719b="" x="0" y="0" width="100%" height="100%" fill="#fff" fill-opacity="1" class="background"></rect> <rect data-v-0dd9719b="" x="0" y="0" width="100%" height="100%" fill="url(#watermark)" fill-opacity="1" class="watermarklayer"></rect> <g data-v-0dd9719b="" fill="#007ec8" class="icon-text-wrapper icon-svg-group iconsvg" transform="translate(58.86000061035156,94.73670959472656)"><g class="iconsvg-imagesvg" transform="translate(0,0)"><g><rect fill="#007ec8" fill-opacity="0" stroke-width="2" x="0" y="0" width="60" height="60.52658125693534" class="image-rect"></rect> <svg x="0" y="0" width="60" height="60.52658125693534" filtersec="colorsb1858496743" class="image-svg-svg primary" style="overflow: visible;"><svg xmlns="http://www.w3.org/2000/svg" viewBox="0 -0.005672646686434746 128.47000122070312 129.59793090820312"><defs><linearGradient id="ab687a543-8084-482f-9b0e-348590583c31" x1="32.91" y1="-1.91" x2="157.91" y2="102.59" gradientUnits="userSpaceOnUse"><stop offset="0" stop-color="#00aeef"></stop><stop offset=".11" stop-color="#00a7e9"></stop><stop offset=".68" stop-color="#0089d1"></stop><stop offset="1" stop-color="#007ec8"></stop></linearGradient><linearGradient id="bb6303083-9405-4c1c-b6d6-18ccd16d8544" x1="3.15" y1="33.69" x2="128.15" y2="138.19" gradientUnits="userSpaceOnUse"><stop offset="0" stop-color="#00aeef"></stop><stop offset=".11" stop-color="#00a7e9"></stop><stop offset=".68" stop-color="#0089d1"></stop><stop offset="1" stop-color="#007ec8"></stop></linearGradient><linearGradient id="c46c554b9-da6b-433e-93b1-a288c7f375be" x1="-21.33" y1="62.96" x2="103.68" y2="167.46" gradientUnits="userSpaceOnUse"><stop offset="0" stop-color="#00aeef"></stop><stop offset=".11" stop-color="#00a7e9"></stop><stop offset=".68" stop-color="#0089d1"></stop><stop offset="1" stop-color="#007ec8"></stop></linearGradient></defs><g><g fill-rule="evenodd"><path d="M65.85 5.61q12.17-3.24 22 3c1 .75 1.54 1.43 1.48 2-.06 1.08 1 1.95 3.12 2.58 4.33 1.48 6.84 1.54 7.51.21.29-1.7-1.37-3.56-5-5.61A62.47 62.47 0 0 0 60.78.12a38.88 38.88 0 0 0-17.63 5.47 17.18 17.18 0 0 0-8.07 12.87q-1 12.63 6.76 23.85Q52.79 58.06 64 66.62a175 175 0 0 0 24.89 18.17 83.13 83.13 0 0 0 21.37 9.54q7.6 1.73 10.79 0 1.79-1.42 4.7-10.9a60.65 60.65 0 0 0 2.72-16c-2.08 3.06-8 2.89-17.67-.46q-36.9-17-50-42.85-6.16-13.61 5-18.53z" fill="url(#ab687a543-8084-482f-9b0e-348590583c31)"></path><path d="M5.93 37q7.8-16 21-24.43-11.15 8.76-9.61 21.94Q20 60.25 56.48 90.2q35.31 26 51.73 21.6a59.15 59.15 0 0 1-23 14.35q-4.74.84-13.52-2.37-40.25-18-60.88-49.7Q-1.12 52.87 5.93 37z" fill="url(#bb6303083-9405-4c1c-b6d6-18ccd16d8544)"></path><path d="M3.41 86.27C1.68 81.69.54 75 0 66.24Q1.94 89 27.41 109.91q23.06 18.58 40.21 18.63c.27.4-.35.75-1.83 1a62 62 0 0 1-35.45-9.4Q9.3 105.75 3.41 86.27z" fill="url(#c46c554b9-da6b-433e-93b1-a288c7f375be)"></path></g></g></svg></svg> <!----></g></g> <g transform="translate(67,6.803291320800781)"><g data-gra="path-name" fill-rule="" class="tp-name iconsvg-namesvg"><g transform="scale(1)"><g><path d="M5.28-43.62L7.98-43.62 7.98 2.7 5.28 2.7 5.28-43.62ZM20.46 0.12L48.78 0.12 48.78 2.7 16.86 2.7 16.86 0.72 44.88-41.04 18.36-41.04 18.36-43.62 48.48-43.62 48.48-41.7 20.46 0.12ZM73.38 3.3L73.38 3.3Q68.46 3.3 64.71 1.17 60.96-0.96 58.89-4.83 56.82-8.7 56.82-13.8L56.82-13.8 56.82-43.62 59.34-43.62 59.34-13.68Q59.34-9.3 61.08-6.03 62.82-2.76 65.97-0.99 69.12 0.78 73.32 0.78L73.32 0.78Q79.8 0.78 83.58-3.15 87.36-7.08 87.36-13.86L87.36-13.86 87.36-43.62 90-43.62 90-13.8Q90-8.64 87.93-4.77 85.86-0.9 82.11 1.2 78.36 3.3 73.38 3.3ZM127.08 2.7L111.66-18.12 102-18.12 102 2.7 99.36 2.7 99.36-43.62 115.14-43.62Q120.78-43.62 124.02-40.14 127.26-36.66 127.26-30.84L127.26-30.84Q127.26-25.08 124.02-21.6 120.78-18.12 115.14-18.12L115.14-18.12 114.9-18.12 130.5 2.7 127.08 2.7ZM102-41.04L102-20.7 115.14-20.7Q119.76-20.7 122.16-23.4 124.56-26.1 124.56-30.84L124.56-30.84Q124.56-35.58 122.13-38.31 119.7-41.04 115.14-41.04L115.14-41.04 102-41.04ZM160.56-41.04L138.54-41.04 138.54-22.98 159.18-22.98 159.18-20.4 138.54-20.4 138.54 0.12 160.56 0.12 160.56 2.7 135.9 2.7 135.9-43.62 160.56-43.62 160.56-41.04Z" transform="translate(-5.28000020980835, 43.619998931884766)"></path></g> <!----> <!----> <!----> <!----> <!----> <!----> <!----></g></g> <!----></g></g><defs v-gra="od"></defs></svg>